<svg xmlns="http://www.w3.org/2000/svg" viewBox="0 0 128 128">
  <defs>
    <linearGradient id="body" x1="0" y1="0" x2="1" y2="1">
      <stop offset="0%" stop-color="#d97706"/>
      <stop offset="100%" stop-color="#b45309"/>
    </linearGradient>
  </defs>
  <rect x="8" y="8" width="112" height="112" rx="28" fill="url(#body)"/>
  <rect x="30" y="28" width="68" height="20" rx="5" fill="rgba(0,0,0,.28)"/>
  <g fill="rgba(255,255,255,.85)">
    <rect x="30" y="58" width="15" height="15" rx="4"/>
    <rect x="50" y="58" width="15" height="15" rx="4"/>
    <rect x="70" y="58" width="15" height="15" rx="4"/>
    <rect x="30" y="78" width="15" height="15" rx="4"/>
    <rect x="50" y="78" width="15" height="15" rx="4"/>
    <rect x="70" y="78" width="15" height="15" rx="4"/>
    <rect x="30" y="98" width="55" height="12" rx="4" opacity=".6"/>
  </g>
  <circle cx="98" cy="34" r="20" fill="#7c5cff" stroke="#07090d" stroke-width="3"/>
  <path d="M98 24 L101 31 L108 34 L101 37 L98 44 L95 37 L88 34 L95 31 Z" fill="#fff"/>
</svg>
